<mxfile host="app.diagrams.net" modified="2024-02-12T16:16:00.370Z" agent="Mozilla/5.0 (Windows NT 10.0; Win64; x64) AppleWebKit/537.36 (KHTML, like Gecko) Chrome/121.0.0.0 Safari/537.36" etag="MIMZVUZeaYQxAVGXOsSy" version="23.1.2" type="github">
  <diagram name="Page-1" id="NbYoZUBI6sTjBN7a_lKO">
    <mxGraphModel dx="2140" dy="1622" grid="1" gridSize="10" guides="1" tooltips="1" connect="1" arrows="1" fold="1" page="1" pageScale="1" pageWidth="850" pageHeight="1100" math="0" shadow="0">
      <root>
        <mxCell id="0" />
        <mxCell id="1" parent="0" />
        <mxCell id="n6sM4EhHxOekVU2w71Ya-1" value="Writer" style="swimlane;fontStyle=1;align=center;verticalAlign=top;childLayout=stackLayout;horizontal=1;startSize=26;horizontalStack=0;resizeParent=1;resizeParentMax=0;resizeLast=0;collapsible=1;marginBottom=0;whiteSpace=wrap;html=1;" vertex="1" parent="1">
          <mxGeometry x="60" y="-176" width="300" height="216" as="geometry" />
        </mxCell>
        <mxCell id="n6sM4EhHxOekVU2w71Ya-2" value="+ name: string" style="text;strokeColor=none;fillColor=none;align=left;verticalAlign=top;spacingLeft=4;spacingRight=4;overflow=hidden;rotatable=0;points=[[0,0.5],[1,0.5]];portConstraint=eastwest;whiteSpace=wrap;html=1;" vertex="1" parent="n6sM4EhHxOekVU2w71Ya-1">
          <mxGeometry y="26" width="300" height="26" as="geometry" />
        </mxCell>
        <mxCell id="n6sM4EhHxOekVU2w71Ya-3" value="+ brand: string" style="text;strokeColor=none;fillColor=none;align=left;verticalAlign=top;spacingLeft=4;spacingRight=4;overflow=hidden;rotatable=0;points=[[0,0.5],[1,0.5]];portConstraint=eastwest;whiteSpace=wrap;html=1;" vertex="1" parent="n6sM4EhHxOekVU2w71Ya-1">
          <mxGeometry y="52" width="300" height="26" as="geometry" />
        </mxCell>
        <mxCell id="n6sM4EhHxOekVU2w71Ya-4" value="+ price: string" style="text;strokeColor=none;fillColor=none;align=left;verticalAlign=top;spacingLeft=4;spacingRight=4;overflow=hidden;rotatable=0;points=[[0,0.5],[1,0.5]];portConstraint=eastwest;whiteSpace=wrap;html=1;" vertex="1" parent="n6sM4EhHxOekVU2w71Ya-1">
          <mxGeometry y="78" width="300" height="26" as="geometry" />
        </mxCell>
        <mxCell id="n6sM4EhHxOekVU2w71Ya-5" value="+ refillableBehavior:RefillableBehavior" style="text;strokeColor=none;fillColor=none;align=left;verticalAlign=top;spacingLeft=4;spacingRight=4;overflow=hidden;rotatable=0;points=[[0,0.5],[1,0.5]];portConstraint=eastwest;whiteSpace=wrap;html=1;" vertex="1" parent="n6sM4EhHxOekVU2w71Ya-1">
          <mxGeometry y="104" width="300" height="26" as="geometry" />
        </mxCell>
        <mxCell id="n6sM4EhHxOekVU2w71Ya-6" value="" style="line;strokeWidth=1;fillColor=none;align=left;verticalAlign=middle;spacingTop=-1;spacingLeft=3;spacingRight=3;rotatable=0;labelPosition=right;points=[];portConstraint=eastwest;strokeColor=inherit;" vertex="1" parent="n6sM4EhHxOekVU2w71Ya-1">
          <mxGeometry y="130" width="300" height="8" as="geometry" />
        </mxCell>
        <mxCell id="n6sM4EhHxOekVU2w71Ya-7" value="+ write(void): void" style="text;strokeColor=none;fillColor=none;align=left;verticalAlign=top;spacingLeft=4;spacingRight=4;overflow=hidden;rotatable=0;points=[[0,0.5],[1,0.5]];portConstraint=eastwest;whiteSpace=wrap;html=1;" vertex="1" parent="n6sM4EhHxOekVU2w71Ya-1">
          <mxGeometry y="138" width="300" height="26" as="geometry" />
        </mxCell>
        <mxCell id="n6sM4EhHxOekVU2w71Ya-8" value="+ display(void): void" style="text;strokeColor=none;fillColor=none;align=left;verticalAlign=top;spacingLeft=4;spacingRight=4;overflow=hidden;rotatable=0;points=[[0,0.5],[1,0.5]];portConstraint=eastwest;whiteSpace=wrap;html=1;" vertex="1" parent="n6sM4EhHxOekVU2w71Ya-1">
          <mxGeometry y="164" width="300" height="26" as="geometry" />
        </mxCell>
        <mxCell id="n6sM4EhHxOekVU2w71Ya-9" value="+ Refill(void): void" style="text;strokeColor=none;fillColor=none;align=left;verticalAlign=top;spacingLeft=4;spacingRight=4;overflow=hidden;rotatable=0;points=[[0,0.5],[1,0.5]];portConstraint=eastwest;whiteSpace=wrap;html=1;" vertex="1" parent="n6sM4EhHxOekVU2w71Ya-1">
          <mxGeometry y="190" width="300" height="26" as="geometry" />
        </mxCell>
        <mxCell id="n6sM4EhHxOekVU2w71Ya-10" value="Extends" style="endArrow=block;endSize=16;endFill=0;html=1;rounded=0;exitX=0.324;exitY=1.015;exitDx=0;exitDy=0;exitPerimeter=0;entryX=0.5;entryY=0;entryDx=0;entryDy=0;" edge="1" parent="1" source="n6sM4EhHxOekVU2w71Ya-9" target="n6sM4EhHxOekVU2w71Ya-11">
          <mxGeometry width="160" relative="1" as="geometry">
            <mxPoint x="240" y="290" as="sourcePoint" />
            <mxPoint x="90" y="380" as="targetPoint" />
          </mxGeometry>
        </mxCell>
        <mxCell id="n6sM4EhHxOekVU2w71Ya-11" value="BallPen" style="swimlane;fontStyle=0;childLayout=stackLayout;horizontal=1;startSize=26;fillColor=none;horizontalStack=0;resizeParent=1;resizeParentMax=0;resizeLast=0;collapsible=1;marginBottom=0;whiteSpace=wrap;html=1;" vertex="1" parent="1">
          <mxGeometry x="-160" y="110" width="140" height="52" as="geometry" />
        </mxCell>
        <mxCell id="n6sM4EhHxOekVU2w71Ya-12" value="GelPen" style="swimlane;fontStyle=0;childLayout=stackLayout;horizontal=1;startSize=26;fillColor=none;horizontalStack=0;resizeParent=1;resizeParentMax=0;resizeLast=0;collapsible=1;marginBottom=0;whiteSpace=wrap;html=1;" vertex="1" parent="1">
          <mxGeometry y="120" width="140" height="52" as="geometry" />
        </mxCell>
        <mxCell id="n6sM4EhHxOekVU2w71Ya-13" value="MarkerPen" style="swimlane;fontStyle=0;childLayout=stackLayout;horizontal=1;startSize=26;fillColor=none;horizontalStack=0;resizeParent=1;resizeParentMax=0;resizeLast=0;collapsible=1;marginBottom=0;whiteSpace=wrap;html=1;" vertex="1" parent="1">
          <mxGeometry x="160" y="120" width="140" height="52" as="geometry" />
        </mxCell>
        <mxCell id="n6sM4EhHxOekVU2w71Ya-14" value="Extends" style="endArrow=block;endSize=16;endFill=0;html=1;rounded=0;entryX=0.5;entryY=0;entryDx=0;entryDy=0;" edge="1" parent="1" source="n6sM4EhHxOekVU2w71Ya-9" target="n6sM4EhHxOekVU2w71Ya-12">
          <mxGeometry width="160" relative="1" as="geometry">
            <mxPoint x="262" y="260" as="sourcePoint" />
            <mxPoint x="100" y="390" as="targetPoint" />
          </mxGeometry>
        </mxCell>
        <mxCell id="n6sM4EhHxOekVU2w71Ya-15" value="Extends" style="endArrow=block;endSize=16;endFill=0;html=1;rounded=0;entryX=0.5;entryY=0;entryDx=0;entryDy=0;exitX=0.828;exitY=1.046;exitDx=0;exitDy=0;exitPerimeter=0;" edge="1" parent="1" source="n6sM4EhHxOekVU2w71Ya-9" target="n6sM4EhHxOekVU2w71Ya-13">
          <mxGeometry width="160" relative="1" as="geometry">
            <mxPoint x="279" y="266" as="sourcePoint" />
            <mxPoint x="270" y="390" as="targetPoint" />
          </mxGeometry>
        </mxCell>
        <mxCell id="n6sM4EhHxOekVU2w71Ya-23" value="NormalPencil" style="swimlane;fontStyle=0;childLayout=stackLayout;horizontal=1;startSize=26;fillColor=none;horizontalStack=0;resizeParent=1;resizeParentMax=0;resizeLast=0;collapsible=1;marginBottom=0;whiteSpace=wrap;html=1;" vertex="1" parent="1">
          <mxGeometry x="320" y="120" width="140" height="52" as="geometry" />
        </mxCell>
        <mxCell id="n6sM4EhHxOekVU2w71Ya-24" value="PremiumPencil" style="swimlane;fontStyle=0;childLayout=stackLayout;horizontal=1;startSize=26;fillColor=none;horizontalStack=0;resizeParent=1;resizeParentMax=0;resizeLast=0;collapsible=1;marginBottom=0;whiteSpace=wrap;html=1;" vertex="1" parent="1">
          <mxGeometry x="480" y="120" width="140" height="52" as="geometry" />
        </mxCell>
        <mxCell id="n6sM4EhHxOekVU2w71Ya-25" value="Extends" style="endArrow=block;endSize=16;endFill=0;html=1;rounded=0;entryX=0.5;entryY=0;entryDx=0;entryDy=0;exitX=1;exitY=0.5;exitDx=0;exitDy=0;" edge="1" parent="1" source="n6sM4EhHxOekVU2w71Ya-7" target="n6sM4EhHxOekVU2w71Ya-23">
          <mxGeometry width="160" relative="1" as="geometry">
            <mxPoint x="479.0999999999999" y="72" as="sourcePoint" />
            <mxPoint x="577" y="380" as="targetPoint" />
          </mxGeometry>
        </mxCell>
        <mxCell id="n6sM4EhHxOekVU2w71Ya-26" value="Extends" style="endArrow=block;endSize=16;endFill=0;html=1;rounded=0;entryX=0.75;entryY=0;entryDx=0;entryDy=0;exitX=1;exitY=-0.062;exitDx=0;exitDy=0;exitPerimeter=0;" edge="1" parent="1" source="n6sM4EhHxOekVU2w71Ya-7" target="n6sM4EhHxOekVU2w71Ya-24">
          <mxGeometry width="160" relative="1" as="geometry">
            <mxPoint x="660" y="22" as="sourcePoint" />
            <mxPoint x="728" y="140" as="targetPoint" />
          </mxGeometry>
        </mxCell>
        <mxCell id="n6sM4EhHxOekVU2w71Ya-27" value="«&lt;b style=&quot;border-color: var(--border-color);&quot;&gt;RefillBehavior&lt;/b&gt;»&lt;br&gt;Refill()" style="html=1;whiteSpace=wrap;" vertex="1" parent="1">
          <mxGeometry x="-230" y="-170" width="110" height="50" as="geometry" />
        </mxCell>
        <mxCell id="n6sM4EhHxOekVU2w71Ya-28" value="Refillable" style="swimlane;fontStyle=0;childLayout=stackLayout;horizontal=1;startSize=26;fillColor=none;horizontalStack=0;resizeParent=1;resizeParentMax=0;resizeLast=0;collapsible=1;marginBottom=0;whiteSpace=wrap;html=1;" vertex="1" parent="1">
          <mxGeometry x="-315" y="-42" width="140" height="52" as="geometry" />
        </mxCell>
        <mxCell id="n6sM4EhHxOekVU2w71Ya-29" value="NonRefillable" style="swimlane;fontStyle=0;childLayout=stackLayout;horizontal=1;startSize=26;fillColor=none;horizontalStack=0;resizeParent=1;resizeParentMax=0;resizeLast=0;collapsible=1;marginBottom=0;whiteSpace=wrap;html=1;" vertex="1" parent="1">
          <mxGeometry x="-160" y="-42" width="140" height="52" as="geometry" />
        </mxCell>
        <mxCell id="n6sM4EhHxOekVU2w71Ya-30" value="" style="endArrow=block;dashed=1;endFill=0;endSize=12;html=1;rounded=0;entryX=0.25;entryY=1;entryDx=0;entryDy=0;exitX=0.25;exitY=0;exitDx=0;exitDy=0;" edge="1" parent="1" source="n6sM4EhHxOekVU2w71Ya-28" target="n6sM4EhHxOekVU2w71Ya-27">
          <mxGeometry width="160" relative="1" as="geometry">
            <mxPoint x="-310" y="170" as="sourcePoint" />
            <mxPoint x="-150" y="170" as="targetPoint" />
          </mxGeometry>
        </mxCell>
        <mxCell id="n6sM4EhHxOekVU2w71Ya-31" value="" style="endArrow=block;dashed=1;endFill=0;endSize=12;html=1;rounded=0;entryX=0.75;entryY=1;entryDx=0;entryDy=0;exitX=0.5;exitY=0;exitDx=0;exitDy=0;" edge="1" parent="1" source="n6sM4EhHxOekVU2w71Ya-29" target="n6sM4EhHxOekVU2w71Ya-27">
          <mxGeometry width="160" relative="1" as="geometry">
            <mxPoint x="-180" y="200" as="sourcePoint" />
            <mxPoint x="-87" y="100" as="targetPoint" />
          </mxGeometry>
        </mxCell>
        <mxCell id="n6sM4EhHxOekVU2w71Ya-32" value="" style="endArrow=diamondThin;endFill=0;endSize=24;html=1;rounded=0;entryX=0;entryY=0.5;entryDx=0;entryDy=0;exitX=1;exitY=0.25;exitDx=0;exitDy=0;" edge="1" parent="1" source="n6sM4EhHxOekVU2w71Ya-27" target="n6sM4EhHxOekVU2w71Ya-4">
          <mxGeometry width="160" relative="1" as="geometry">
            <mxPoint x="-30" y="90" as="sourcePoint" />
            <mxPoint x="110" y="90" as="targetPoint" />
          </mxGeometry>
        </mxCell>
        <mxCell id="n6sM4EhHxOekVU2w71Ya-36" value="DigitalPen" style="swimlane;fontStyle=0;childLayout=stackLayout;horizontal=1;startSize=26;fillColor=none;horizontalStack=0;resizeParent=1;resizeParentMax=0;resizeLast=0;collapsible=1;marginBottom=0;whiteSpace=wrap;html=1;" vertex="1" parent="1">
          <mxGeometry x="640" y="120" width="140" height="52" as="geometry" />
        </mxCell>
        <mxCell id="n6sM4EhHxOekVU2w71Ya-37" value="Extends" style="endArrow=block;endSize=16;endFill=0;html=1;rounded=0;entryX=0.5;entryY=0;entryDx=0;entryDy=0;exitX=1;exitY=0.5;exitDx=0;exitDy=0;" edge="1" parent="1" source="n6sM4EhHxOekVU2w71Ya-4" target="n6sM4EhHxOekVU2w71Ya-36">
          <mxGeometry width="160" relative="1" as="geometry">
            <mxPoint x="370" y="-100" as="sourcePoint" />
            <mxPoint x="585" y="40" as="targetPoint" />
          </mxGeometry>
        </mxCell>
      </root>
    </mxGraphModel>
  </diagram>
</mxfile>
